<svg xmlns="http://www.w3.org/2000/svg" width="1288.876" height="593.96" viewBox="0 0 1288.876 593.96">
  <g id="Group_13" data-name="Group 13" transform="translate(0.502 593.46) rotate(-90)">
    <path id="Path_130" data-name="Path 130" d="M509.635.083c0-4.9,51.867,209.421-121.207,209.421S98.64,372.309,251.53,541.3s81.073,370.573,13.152,483.919S0,1287.311,0,1287.311V.083S509.635,4.986,509.635.083Z" transform="translate(76 0)" fill="none" stroke="#e4f3ee" stroke-width="1"/>
    <path id="Path_131" data-name="Path 131" d="M509.635.083c0-4.9,51.867,209.421-121.207,209.421S98.64,372.309,251.53,541.3s81.073,370.573,13.152,483.919S0,1287.311,0,1287.311V.083S509.635,4.986,509.635.083Z" transform="translate(48 0.059)" fill="none" stroke="#e4f3ee" stroke-width="1"/>
    <path id="Path_132" data-name="Path 132" d="M509.635.083c0-4.9,51.867,209.421-121.207,209.421S98.64,372.309,251.53,541.3s81.073,370.573,13.152,483.919S0,1287.311,0,1287.311V.083S509.635,4.986,509.635.083Z" transform="translate(62 0.059)" fill="none" stroke="#e4f3ee" stroke-width="1"/>
    <path id="Path_133" data-name="Path 133" d="M509.635.083c0-4.9,51.867,209.421-121.207,209.421S98.64,372.309,251.53,541.3s81.073,370.573,13.152,483.919S0,1287.311,0,1287.311V.083S509.635,4.986,509.635.083Z" transform="translate(32 0.059)" fill="none" stroke="#e4f3ee" stroke-width="1"/>
    <path id="Path_134" data-name="Path 134" d="M509.635.083c0-4.9,51.867,209.421-121.207,209.421S98.64,372.309,251.53,541.3s81.073,370.573,13.152,483.919S0,1287.311,0,1287.311V.083S509.635,4.986,509.635.083Z" transform="translate(16 0.059)" fill="none" stroke="#e4f3ee" stroke-width="1"/>
    <path id="Path_135" data-name="Path 135" d="M509.635.083c0-4.9,51.867,209.421-121.207,209.421S98.64,372.309,251.53,541.3s81.073,370.573,13.152,483.919S0,1287.311,0,1287.311V.083S509.635,4.986,509.635.083Z" transform="translate(0 0.059)" fill="none" stroke="#e4f3ee" stroke-width="1"/>
  </g>
</svg>
