<svg xmlns="http://www.w3.org/2000/svg" width="50" height="50" viewBox="0 0 50 50">
  <g id="svgexport-627" transform="translate(0.002 0.002)">
    <rect id="Rectangle_139" data-name="Rectangle 139" width="50" height="50" transform="translate(-0.002 -0.002)" fill="none"/>
    <path id="Path_137" data-name="Path 137" d="M7.166,36.331H38.414a2.083,2.083,0,0,1,0,4.166H5.083A2.083,2.083,0,0,1,3,38.414V5.083a2.083,2.083,0,1,1,4.166,0Z" transform="translate(3.25 3.25)" fill="#399b75"/>
    <path id="Path_138" data-name="Path 138" d="M10.6,23.549A2.083,2.083,0,0,1,7.563,20.7l7.812-8.333a2.083,2.083,0,0,1,2.872-.16l6.166,5.262L32.447,7.292a2.083,2.083,0,0,1,3.27,2.582L26.342,21.748a2.083,2.083,0,0,1-2.987.294l-6.3-5.376Z" transform="translate(7.582 7.041)" fill="#399b75" opacity="0.3"/>
  </g>
</svg>
