<svg xmlns="http://www.w3.org/2000/svg" width="20" height="20" viewBox="0 0 20 20">
  <g id="instagram" transform="translate(-0.449)">
    <path id="Path_161" data-name="Path 161" d="M20.4,5.88a7.307,7.307,0,0,0-.465-2.426A5.124,5.124,0,0,0,17.006.527,7.329,7.329,0,0,0,14.579.063C13.508.012,13.168,0,10.452,0S7.4.012,6.33.059A7.313,7.313,0,0,0,3.9.524,4.881,4.881,0,0,0,2.129,1.68,4.924,4.924,0,0,0,.976,3.45,7.326,7.326,0,0,0,.511,5.876C.46,6.947.449,7.287.449,10s.012,3.055.059,4.122A7.306,7.306,0,0,0,.972,16.55,5.123,5.123,0,0,0,3.9,19.477a7.33,7.33,0,0,0,2.427.465c1.067.047,1.407.059,4.123.059s3.056-.012,4.123-.059A7.309,7.309,0,0,0,17,19.477a5.116,5.116,0,0,0,2.927-2.926,7.331,7.331,0,0,0,.465-2.426c.047-1.067.059-1.407.059-4.122s0-3.055-.051-4.122Zm-1.8,8.166a5.481,5.481,0,0,1-.344,1.856,3.318,3.318,0,0,1-1.9,1.9,5.5,5.5,0,0,1-1.856.344c-1.055.047-1.372.059-4.041.059s-2.989-.012-4.041-.059A5.481,5.481,0,0,1,4.56,17.8a3.078,3.078,0,0,1-1.149-.746,3.109,3.109,0,0,1-.746-1.149,5.5,5.5,0,0,1-.344-1.856c-.047-1.055-.059-1.371-.059-4.04s.012-2.989.059-4.04a5.478,5.478,0,0,1,.344-1.856,3.04,3.04,0,0,1,.75-1.149,3.105,3.105,0,0,1,1.149-.746A5.507,5.507,0,0,1,6.42,1.875c1.055-.047,1.372-.059,4.041-.059s2.989.012,4.041.059a5.484,5.484,0,0,1,1.856.344,3.076,3.076,0,0,1,1.149.746,3.109,3.109,0,0,1,.746,1.149A5.5,5.5,0,0,1,18.6,5.97c.047,1.055.059,1.371.059,4.04s-.012,2.981-.059,4.036Zm0,0" fill="#fff"/>
    <path id="Path_162" data-name="Path 162" d="M130.039,124.5a5.088,5.088,0,1,0,5.09,5.088A5.091,5.091,0,0,0,130.039,124.5Zm0,8.389a3.3,3.3,0,1,1,3.3-3.3,3.3,3.3,0,0,1-3.3,3.3Zm0,0" transform="translate(-119.587 -119.586)" fill="#fff"/>
    <path id="Path_163" data-name="Path 163" d="M364.873,89.813a1.212,1.212,0,1,1-1.212-1.212A1.212,1.212,0,0,1,364.873,89.813Zm0,0" transform="translate(-347.874 -85.145)" fill="#fff"/>
  </g>
</svg>
