<svg xmlns="http://www.w3.org/2000/svg" width="20" height="20" viewBox="0 0 20 20">
  <path id="skype_1_" data-name="skype (1)" d="M19.4,12.108A9.464,9.464,0,0,0,8.467.835,5.534,5.534,0,0,0,0,5.448,5.373,5.373,0,0,0,.759,8.2,9.466,9.466,0,0,0,11.841,19.33C16.565,21.828,21.786,16.846,19.4,12.108Zm-6.359,3.921a8.634,8.634,0,0,1-6.39-.189c-2.492-1.329-2.935-4.319-.785-4.319,1.62,0,1.107,1.889,2.743,2.659a3.968,3.968,0,0,0,3.3-.25,1.3,1.3,0,0,0,.338-2.062c-1.335-1.232-5.153-.742-6.9-2.9a3.135,3.135,0,0,1,.031-3.783c1.625-2.091,6.394-2.218,8.444-.639,1.893,1.465,1.382,3.409-.146,3.409-1.837,0-.872-2.4-3.838-2.4-2.15,0-3,1.529-1.482,2.273,2.053,1.02,7.284.679,7.284,4.664a3.789,3.789,0,0,1-2.6,3.54Z" transform="translate(0 0.002)" fill="#fff"/>
</svg>
