<svg xmlns="http://www.w3.org/2000/svg" width="15" height="19.25" viewBox="0 0 15 19.25">
  <g id="Group_51" data-name="Group 51" transform="translate(0 2)">
    <path id="Path_164" data-name="Path 164" d="M21.808,39.116a1.943,1.943,0,0,0-1.622-1.569,47.357,47.357,0,0,0-5.616-.221,47.372,47.372,0,0,0-5.617.221,1.943,1.943,0,0,0-1.621,1.569,18.176,18.176,0,0,0-.265,3.775,18.173,18.173,0,0,0,.261,3.774,1.943,1.943,0,0,0,1.621,1.569,47.361,47.361,0,0,0,5.617.221,47.327,47.327,0,0,0,5.617-.221A1.944,1.944,0,0,0,21.8,46.665a18.187,18.187,0,0,0,.263-3.774A18.2,18.2,0,0,0,21.808,39.116Zm-10.462.937H10.26v6.141H9.251V40.053H8.186V39.047h3.16Zm2.739,6.141h-.907v-.581a1.435,1.435,0,0,1-1.036.654.556.556,0,0,1-.584-.4,2.885,2.885,0,0,1-.08-.792V40.869h.906V44.79a3.2,3.2,0,0,0,.008.375c.022.15.091.226.212.226.182,0,.372-.149.573-.452v-4.07h.907v5.325Zm3.444-1.6a4.519,4.519,0,0,1-.092,1.073.727.727,0,0,1-.724.6,1.221,1.221,0,0,1-.937-.589v.516h-.906V39.047h.906v2.334a1.213,1.213,0,0,1,.937-.578.726.726,0,0,1,.724.6,4.344,4.344,0,0,1,.092,1.071Zm3.421-.888H19.136v.944c0,.493.151.739.463.739.223,0,.353-.129.4-.387a6.463,6.463,0,0,0,.02-.654h.925v.141c0,.311-.011.525-.019.622a1.428,1.428,0,0,1-.212.578,1.232,1.232,0,0,1-1.1.577,1.27,1.27,0,0,1-1.1-.545,2.165,2.165,0,0,1-.291-1.252V42.6a2.177,2.177,0,0,1,.28-1.255A1.261,1.261,0,0,1,19.6,40.8a1.233,1.233,0,0,1,1.069.546A2.2,2.2,0,0,1,20.95,42.6v1.1Z" transform="translate(-7.067 -31.205)" fill="#fff"/>
    <path id="Path_165" data-name="Path 165" d="M69.141,58.163q-.484,0-.484.739v.493h.965V58.9C69.622,58.409,69.46,58.163,69.141,58.163Z" transform="translate(-56.777 -47.173)" fill="#fff"/>
    <path id="Path_166" data-name="Path 166" d="M51.986,58.163a.691.691,0,0,0-.481.235v3.246a.688.688,0,0,0,.481.238c.278,0,.42-.238.42-.719V58.89C52.406,58.409,52.265,58.163,51.986,58.163Z" transform="translate(-42.83 -47.36)" fill="#fff"/>
    <path id="Path_167" data-name="Path 167" d="M53.685,14.276a1.567,1.567,0,0,0,1.114-.661V14.2h.975V8.82H54.8v4.113c-.216.305-.421.456-.616.456-.131,0-.207-.077-.229-.228a2.263,2.263,0,0,1-.012-.379V8.82H52.97v4.256a2.719,2.719,0,0,0,.086.8A.6.6,0,0,0,53.685,14.276Z" transform="translate(-44.098 -8.98)" fill="#fff"/>
    <path id="Path_168" data-name="Path 168" d="M18.712,4.3V7.222h1.081V4.3l1.3-4.3H20l-.738,2.836L18.495,0H17.357c.228.669.465,1.342.693,2.012A17.79,17.79,0,0,1,18.712,4.3Z" transform="translate(-15.21 -2)" fill="#fff"/>
    <path id="Path_169" data-name="Path 169" d="M36.754,14.029a1.329,1.329,0,0,0,1.138-.551,2.105,2.105,0,0,0,.3-1.266V10.328a2.109,2.109,0,0,0-.3-1.268,1.446,1.446,0,0,0-2.273,0,2.092,2.092,0,0,0-.305,1.268v1.885a2.086,2.086,0,0,0,.305,1.266A1.329,1.329,0,0,0,36.754,14.029Zm-.465-3.9c0-.5.151-.746.465-.746s.465.248.465.746V12.4c0,.5-.151.747-.465.747s-.465-.249-.465-.747Z" transform="translate(-29.856 -8.733)" fill="#fff"/>
  </g>
</svg>
